<?xml version="1.0" encoding="utf-8"?>
<!-- Generator: Adobe Illustrator 22.0.0, SVG Export Plug-In . SVG Version: 6.00 Build 0)  -->
<svg version="1.1" xmlns="http://www.w3.org/2000/svg" xmlns:xlink="http://www.w3.org/1999/xlink" x="0px" y="0px"
	 viewBox="0 0 1920 1080" style="enable-background:new 0 0 1920 1080;" xml:space="preserve">
<style type="text/css">
	.st0{fill:#004889;}
</style>
<g id="Layer_1">
</g>
<g id="Desktop">
	<g>
		<g>
			<path class="st0" d="M1246,163c-4.3-4.9-10.7-7.3-19.2-7.3h-450c-5.9,0.4-11,2.8-15.3,7.3c-4.3,4.5-6.4,10.7-6.4,18.5v128.3
				c0,21.1,17,38.3,37.9,38.3h433.2c8.5,0,15-2.9,19.5-8.7c4.4-5.8,6.7-11.8,6.7-18.2V182.5C1252.4,174.3,1250.2,167.8,1246,163z
				 M1237.4,527.9c-4.8-3.9-10.8-5.9-17.8-5.9H970.2v-0.4H793c-20.9,0-37.9,17.1-37.9,38.3V965c0,13.8,6.7,21.7,20,23.6h169.5
				c17,0,25.6-8,25.6-24.1V707.6h250.6c7.4,0,13.2-2.9,17.5-8.7c4.3-5.8,6.4-11.9,6.4-18.2v-134
				C1244.7,538,1242.2,531.8,1237.4,527.9z"/>
			<g>
				<path class="st0" d="M1422.7,695.6c6.3,5.2,14.4,12.3,24.2,21c9.8,8.8,21,17.5,33.6,26.1c18.9,12.7,37.6,22.6,56.1,29.7
					c18.5,7.1,38,10.7,58.3,10.7c18.9,0,34.7-2.1,47.5-6.4c12.8-4.3,22.9-10,30.3-17.1c7.4-7.1,12.7-15.3,15.8-24.7
					c3.1-9.3,4.7-19.2,4.7-29.7c0-11.6-4.4-21.9-13.1-31.1c-8.7-9.2-19.4-17.3-32-24.4c-12.6-7.1-25.8-13.2-39.5-18.2
					c-13.7-5-25.6-9.2-35.6-12.6c-44.5-15.7-83.4-32.6-116.7-50.7c-33.3-18.1-61.1-38.3-83.4-60.5c-22.2-22.2-38.9-46.7-50-73.4
					c-11.1-26.7-16.7-56.5-16.7-89.4c0-34.7,6.9-66.3,20.8-94.7c13.9-28.4,33.7-52.7,59.5-72.9c25.7-20.2,56.8-35.8,93.1-46.8
					c36.3-11,76.9-16.5,121.7-16.5c33.7,0,66,3.8,97,11.5c30.9,7.7,61.4,19.9,91.4,36.7c12.6,7.5,24.5,15.2,35.8,23.3
					c11.3,8,21.2,15.8,29.7,23.3c8.5,7.5,15.3,14.6,20.3,21.3c5,6.7,7.5,12.5,7.5,17.4c0,4.9-1.2,9.4-3.6,13.5
					c-2.4,4.1-6,8.8-10.8,14l-85,91.4c-6.3,6.4-12.6,9.5-18.9,9.5c-5.2,0-9.9-1.5-14.2-4.5c-4.3-3-9-6.7-14.2-11.2l-5-4.5
					c-7.4-6.4-15.7-12.9-24.7-19.6c-9.1-6.7-18.8-12.8-29.2-18.2c-10.4-5.4-21.3-9.9-32.8-13.5c-11.5-3.5-23.2-5.3-35-5.3
					c-12.2,0-23.7,1-34.5,3.1c-10.7,2.1-20.2,5.3-28.3,9.8c-8.2,4.5-14.6,10.4-19.4,17.7c-4.8,7.3-7.2,16.2-7.2,26.6
					c0,10.5,2.6,19.5,7.8,27.2c5.2,7.7,13,14.8,23.3,21.3c10.4,6.5,23.2,12.7,38.6,18.5c15.4,5.8,33.2,12.1,53.6,18.8
					c39.3,13.1,75.5,26.8,108.6,41.2c33.1,14.4,61.8,31.4,85.9,51c24.1,19.6,42.9,43.1,56.4,70.4c13.5,27.3,20.3,60.4,20.3,99.3
					c0,41.1-8.3,78.4-25,111.9c-16.7,33.5-39.5,62-68.6,85.5c-29.1,23.6-63.3,41.8-102.5,54.7c-39.3,12.9-81.5,19.4-126.7,19.4
					c-42.6,0-84.5-7.7-125.6-23.1c-41.1-15.4-79.5-36-115-61.9c-14.8-10.9-27.3-21.6-37.5-32.1c-10.2-10.5-18.3-18.9-24.2-25.3
					l-1.7-1.7c-0.4-0.7-0.7-1.2-1.1-1.4c-0.4-0.2-0.7-0.5-1.1-0.9c-0.4-0.7-0.7-1.2-1.1-1.4c-0.4-0.2-0.7-0.5-1.1-0.8
					c-8.5-9.4-12.8-16.9-12.8-22.5c0-6.4,4.3-13.5,12.8-21.4l96.1-92.5c7.8-5.6,14.1-8.4,18.9-8.4c3.3,0,6.8,1.1,10.6,3.4
					C1413,687.7,1417.5,691.1,1422.7,695.6z"/>
			</g>
			<path class="st0" d="M657.2,628.5c-15.6-34-36.7-63.4-63.3-88.1c15.9-19.1,28.2-40.7,37-64.8c8.7-24.1,13.1-50.2,13.1-78.2
				c0-33.7-6.3-65.2-18.9-94.5c-12.6-29.3-29.7-55-51.4-76.9c-21.7-21.9-47-39.1-75.8-51.6c-28.9-12.5-59.7-18.8-92.2-18.8h-369
				c-7.8,0-13.8,2.3-18,7c-4.3,4.7-6.4,10.9-6.4,18.8v120c0,10.8,8.7,19.6,19.4,19.6h314.8c12.3,0,23.6,2.2,34,6.5
				c10.4,4.3,19.3,10.2,26.8,17.7c7.4,7.5,13.2,16.1,17.3,25.8c4.1,9.7,6.1,20.2,6.1,31.4c0,12-2.2,22.9-6.4,32.8
				c-4.3,9.9-10.1,18.5-17.5,25.8c-7.4,7.3-16.4,12.9-27,16.8c-10.6,3.9-22.2,5.9-34.8,5.9H31.5c-10.7,0-19.4,8.8-19.4,19.6v41.2
				v70.4v226.6V894v70.5c0,8.2,2.2,14.3,6.7,18.2c4.4,3.9,10.4,5.9,17.8,5.9h401.8c32.6,0,63.6-6.7,93.1-20.2
				c29.4-13.5,55.2-31.7,77.2-54.7c22-23,39.5-49.7,52.5-80.2c13-30.5,19.5-62.7,19.5-96.8C680.5,698.6,672.7,662.6,657.2,628.5z
				 M453.5,763.1c-4.3,11.2-10.3,21.2-18.1,30c-7.8,8.8-16.9,15.8-27.3,21c-10.4,5.3-21.7,7.9-34,7.9h-147V634.7h147
				c12.3,0,23.7,2.8,34.3,8.4c10.6,5.6,19.7,12.8,27.3,21.6c7.6,8.8,13.5,18.8,17.8,30c4.3,11.2,6.4,22.4,6.4,33.6
				C459.9,740.3,457.8,751.9,453.5,763.1z"/>
		</g>
	</g>
</g>
</svg>
