<?xml version="1.0" encoding="utf-8"?>
<!-- Generator: Adobe Illustrator 22.0.0, SVG Export Plug-In . SVG Version: 6.00 Build 0)  -->
<svg version="1.1" xmlns="http://www.w3.org/2000/svg" xmlns:xlink="http://www.w3.org/1999/xlink" x="0px" y="0px"
	 viewBox="0 0 703.4 705.7" style="enable-background:new 0 0 703.4 705.7;" xml:space="preserve">
<style type="text/css">
	.st0{fill:#004889;}
</style>
<g id="Layer_1">
</g>
<g id="Desktop">
	<path class="st0" d="M417.1,1284.7c-0.8,48.7-1.1,97.4-2.6,146c-1.4,45-10.3,88.4-36.5,126.1c-30.8,44.4-74,69-126.3,77.9
		c-38.5,6.6-77.6,6.3-116.5,6.4c-61.1,0.2-122.3,0.4-183.4-0.5c-37.3-0.6-74.7-1.7-110.6-14.4c-68.2-24.2-108.2-73.1-123.3-143.6
		c-6.8-32-7.3-64.6-7.5-97.1c-0.5-71.1-0.6-142.2,0.2-213.3c0.4-37.6,1.7-75.4,14.3-111.6c24-68.9,72.2-110.4,142.4-123.9
		c31.2-6,63.5-7.5,95.3-8c70.7-1.1,141.4-0.8,212.1,0.1c37.3,0.5,74.7,1.7,110.6,14.4c68.2,24.2,109.4,72.8,122.7,143.7
		c6,31.7,6.7,64.6,8,97c1.3,33.5,0.3,67.2,0.3,100.8C416.5,1284.7,416.8,1284.7,417.1,1284.7z M353.6,1284.7c-0.3,0-0.7,0-1,0
		c0-30,0.8-59.9-0.2-89.8c-1-30.4-2.1-60.9-6.2-91c-7.4-54.2-43.6-91.7-96.5-103.7c-32.2-7.3-65.1-6.9-97.7-7.4
		c-59.1-0.8-118.2-0.9-177.3,0c-30.3,0.5-61,1.6-90.9,6.3c-50.3,7.9-84.6,36.7-99.8,87c-9.1,30.1-9,61.1-9.6,92
		c-0.9,48.7-1.3,97.4-0.7,146.1c0.6,43.9,0.8,88.1,5,131.7c5.6,58.2,38.5,99.4,97.6,113.2c32.4,7.6,65.6,7,98.5,7.4
		c58.8,0.8,117.7,0.9,176.5,0c30.6-0.5,61.5-1.5,91.6-6.3c50.5-8.1,85.5-37.2,99.4-88.1c4.6-16.9,7.2-34.7,7.9-52.2
		C352.1,1381.6,352.6,1333.1,353.6,1284.7z M244.5,1284.7c0,102.3-80.5,182.9-182.5,183.1c-99.2,0.2-181.2-83.4-180.4-184.7
		c0.8-99.7,82.8-182.8,183.5-181.7C164.1,1102.6,244.5,1183.8,244.5,1284.7z M180.9,1284.5c-0.1-65.1-53.3-118.7-117.7-118.6
		c-64.5,0.1-117.6,53.5-117.7,118.6c-0.1,65.4,53.4,119.3,118.1,119C128,1403.3,181,1349.6,180.9,1284.5z M208.9,1094.5
		c0.1,23.5,19.8,43.2,43.1,43c23.1-0.1,42-19.4,42-42.9c0.1-24.5-18.1-42.9-42.2-43C228.1,1051.7,208.9,1070.9,208.9,1094.5z"/>
	<g>
		<g>
			<path class="st0" d="M353.5,704.4c-81.6,0-163.3,0-244.9,0c-1.4-0.4-2.7-0.9-4.2-1.2c-49.9-10.7-82.3-40.5-97.2-89.7
				c-1.5-5-2.5-10.1-3.8-15.1c0-164.8,0-329.6,0-494.4c0.4-1,0.9-2,1.1-3.1c2.7-15.7,7.6-30.6,16.3-44C44.9,19.6,78.1-2,122.7-2.1
				C276.5-2.4,430.3-2.2,584-2.2c65.2,0,119.5,54.9,119.5,120.7c0,155-0.3,310,0.2,465c0.2,53.5-38.9,103.2-88.6,116.7
				c-5.5,1.5-11.1,2.8-16.7,4.2c-45.1,0-90.2,0-135.3,0c-0.2-1.9-0.4-3.7-0.4-5.6c0-84.8,0-169.7,0-254.5c0-2,0-4,0-6.7
				c2.8,0,5,0,7.2,0c34.3,0,68.6-0.1,102.9,0.1c5,0,6.7-1.1,6.7-6.5c-0.2-35-0.1-70-0.1-105c0-2-0.2-4-0.3-6.7
				c-38.9,0-77.4,0-115.7,0c0-18.6-0.9-36.5,0.3-54.2c0.8-12.5,10.1-24.9,27.5-24.3c27.4,0.9,54.8,0.2,82.2,0.3
				c4.3,0,6.2-0.8,6.2-5.8c-0.2-35.5-0.1-71.1-0.1-106.7c0-1.6-0.2-3.3-0.4-5.6c-2.3,0-4.3,0-6.3,0c-28,0-55.9,0.1-83.9,0
				c-25.9-0.1-49.5,7-70.7,22.2c-35.1,25.2-55.5,60-62,102.3c-3.1,20.1-1.9,40.9-2.5,61.3c-0.1,3.3,0,6.7,0,10.7
				c-28.8,0-56.9,0-85.3,0c-0.2,2-0.4,3.3-0.4,4.6c0,35.9,0.1,71.9-0.1,107.8c0,4.8,2,5.5,6,5.5c24.2-0.1,48.5-0.1,72.7-0.1
				c2.2,0,4.4,0,7.2,0C353.5,527,353.5,615.7,353.5,704.4z"/>
		</g>
	</g>
</g>
</svg>
