<?xml version="1.0" encoding="utf-8"?>
<!-- Generator: Adobe Illustrator 22.0.0, SVG Export Plug-In . SVG Version: 6.00 Build 0)  -->
<svg version="1.1" xmlns="http://www.w3.org/2000/svg" xmlns:xlink="http://www.w3.org/1999/xlink" x="0px" y="0px"
	 viewBox="0 0 699.6 710.2" style="enable-background:new 0 0 699.6 710.2;" xml:space="preserve">
<style type="text/css">
	.st0{fill:#004889;}
</style>
<g id="Layer_1">
</g>
<g id="Desktop">
	<path class="st0" d="M707.2,356.7c-0.8,48.7-1.1,97.4-2.6,146c-1.4,45-10.3,88.4-36.5,126.1c-30.8,44.4-74,69-126.3,77.9
		c-38.5,6.6-77.6,6.3-116.5,6.4c-61.1,0.2-122.3,0.4-183.4-0.5c-37.3-0.6-74.7-1.7-110.6-14.4C63,674,23,625.1,7.9,554.5
		c-6.8-32-7.3-64.6-7.5-97.1c-0.5-71.1-0.6-142.2,0.2-213.3c0.4-37.6,1.7-75.4,14.3-111.6C38.9,63.7,87.1,22.2,157.3,8.7
		c31.2-6,63.5-7.5,95.3-8C323.3-0.4,394-0.1,464.7,0.8c37.3,0.5,74.7,1.7,110.6,14.4C643.5,39.4,684.7,88,698,158.9
		c6,31.7,6.7,64.6,8,97c1.3,33.5,0.3,67.2,0.3,100.8C706.6,356.7,706.9,356.7,707.2,356.7z M643.7,356.7c-0.3,0-0.7,0-1,0
		c0-30,0.8-59.9-0.2-89.8c-1-30.4-2.1-60.9-6.2-91c-7.4-54.2-43.6-91.7-96.5-103.7c-32.2-7.3-65.1-6.9-97.7-7.4
		c-59.1-0.8-118.2-0.9-177.3,0c-30.3,0.5-61,1.6-90.9,6.3c-50.3,7.9-84.6,36.7-99.8,87c-9.1,30.1-9,61.1-9.6,92
		c-0.9,48.7-1.3,97.4-0.7,146.1c0.6,43.9,0.8,88.1,5,131.7c5.6,58.2,38.5,99.4,97.6,113.2c32.4,7.6,65.6,7,98.5,7.4
		c58.8,0.8,117.7,0.9,176.5,0c30.6-0.5,61.5-1.5,91.6-6.3c50.5-8.1,85.5-37.2,99.4-88.1c4.6-16.9,7.2-34.7,7.9-52.2
		C642.2,453.5,642.7,405.1,643.7,356.7z M534.6,356.7c0,102.3-80.5,182.9-182.5,183.1c-99.2,0.2-181.2-83.4-180.4-184.7
		c0.8-99.7,82.8-182.8,183.5-181.7C454.2,174.5,534.6,255.8,534.6,356.7z M471,356.5c-0.1-65.1-53.3-118.7-117.7-118.6
		c-64.5,0.1-117.6,53.5-117.7,118.6c-0.1,65.4,53.4,119.3,118.1,119C418.1,475.3,471.1,421.5,471,356.5z M499,166.5
		c0.1,23.5,19.8,43.2,43.1,43c23.1-0.1,42-19.4,42-42.9c0.1-24.5-18.1-42.9-42.2-43C518.2,123.6,499,142.8,499,166.5z"/>
	<g>
		<g>
			<path class="st0" d="M2489,2338.9c-81.6,0-163.3,0-244.9,0c-1.4-0.4-2.7-0.9-4.2-1.2c-49.9-10.7-82.3-40.5-97.2-89.7
				c-1.5-5-2.5-10.1-3.8-15.1c0-164.8,0-329.6,0-494.4c0.4-1,0.9-2,1.1-3.1c2.7-15.7,7.6-30.6,16.3-44c24-37.2,57.2-58.8,101.9-58.9
				c153.8-0.3,307.5-0.1,461.3-0.1c65.2,0,119.5,54.9,119.5,120.7c0,155-0.3,310,0.2,465c0.2,53.5-38.9,103.2-88.6,116.7
				c-5.5,1.5-11.1,2.8-16.7,4.2c-45.1,0-90.2,0-135.3,0c-0.2-1.9-0.4-3.7-0.4-5.6c0-84.8,0-169.7,0-254.5c0-2,0-4,0-6.7
				c2.8,0,5,0,7.2,0c34.3,0,68.6-0.1,102.9,0.1c5,0,6.7-1.1,6.7-6.5c-0.2-35-0.1-70-0.1-105c0-2-0.2-4-0.3-6.7
				c-38.9,0-77.4,0-115.7,0c0-18.6-0.9-36.5,0.3-54.2c0.8-12.5,10.1-24.9,27.5-24.3c27.4,0.9,54.8,0.2,82.2,0.3
				c4.3,0,6.2-0.8,6.2-5.8c-0.2-35.5-0.1-71.1-0.1-106.7c0-1.6-0.2-3.3-0.4-5.6c-2.3,0-4.3,0-6.3,0c-28,0-55.9,0.1-83.9,0
				c-25.9-0.1-49.5,7-70.7,22.2c-35.1,25.2-55.5,60-62,102.3c-3.1,20.1-1.9,40.9-2.5,61.3c-0.1,3.3,0,6.7,0,10.7
				c-28.8,0-56.9,0-85.3,0c-0.2,2-0.4,3.3-0.4,4.6c0,35.9,0.1,71.9-0.1,107.8c0,4.8,2,5.5,6,5.5c24.2-0.1,48.5-0.1,72.7-0.1
				c2.2,0,4.4,0,7.2,0C2489,2161.4,2489,2250.2,2489,2338.9z"/>
		</g>
	</g>
	<g>
		<g>
			<path class="st0" d="M740.8,2254.9c91.7,7.9,174.3-15.3,247.6-73.5c-5.6-0.6-11.2-1.1-16.7-1.9c-5.8-0.8-11.5-1.8-17.2-3.1
				c-5.7-1.4-11.3-3.1-16.7-5.1c-5.5-2-10.9-4.2-16.2-6.8c-5.3-2.5-10.4-5.3-15.4-8.4c-5-3.1-9.8-6.5-14.5-10.1
				c-4.5-3.5-8.8-7.2-13-11.1c-4.3-4.1-8.4-8.3-12.3-12.8c-3.9-4.5-7.5-9.2-10.9-14c-3.4-4.9-6.6-9.9-9.5-15.1
				c-2.9-5.2-5.5-10.6-7.9-16c-2.4-5.4-4.3-11.1-6.8-17.5c25.1,4,49.2,4.1,73.2-2.9c-14.7-4.7-29.2-9.7-42.7-17.3
				c-13.6-7.6-26-16.7-37.2-27.7c-11.3-11.1-21-23.6-29-37.4c-7.9-13.6-13.9-28.1-17.9-43.4c-4-15.4-6.4-31.1-5.8-47.1
				c12.5,4.8,24.4,9.9,36.6,14c12.1,4.1,24.7,5.8,39.2,6.4c-45.9-34.8-71.3-80.1-74.4-137.5c-2-36.3,8.5-71.8,23-95.5
				c91.7,111,208,172.3,349.7,182.6c-1-14.7-2.4-28.6-2.9-42.7c-0.4-14.5,2-28.8,5.6-42.8c3.6-13.8,8.8-26.9,15.5-39.4
				c6.8-12.5,14.9-24,24.3-34.4c9.6-10.6,20.3-19.9,32.2-27.8c11.7-7.7,23.9-14.3,37.2-18.5c68.8-22,128.5-5.6,180.6,45.4
				c18.3-3.5,36.6-9.1,54.6-16c17.8-6.9,34.8-15.4,51.8-24.8c-5.3,19.8-14.7,37.2-26.8,53.1c-12,15.9-26.5,29.2-42.8,40.7
				c10.7,0.1,20.9-2.3,31.1-4.8c10.3-2.5,20.5-5.4,30.5-8.7c10.2-3.4,20.2-7.5,31.5-11.7c-1.8,2.9-2.9,4.9-4.2,6.7
				c-21,30.5-46,57.1-75.2,79.5c-3.7,2.8-5,5.7-4.9,10.4c2.6,128.1-36.5,241.6-115.2,340.3c-66.6,83.5-152,136.9-254.6,161
				c-40.7,9.6-81.9,13.8-123.5,12.9c-88.1-2-169.9-26.5-245-73.9C744.1,2257.3,742.5,2256.1,740.8,2254.9z"/>
		</g>
	</g>
</g>
</svg>
